REM DIRINDEX 1\2,1\3,1\4,1\5,1\6
REM DIRNAME cjc129,folder01,folder02,folder03,folder04,folder05
TITLE ""
FILE "DISC2Track24.mp3" MP3
  TRACK 01 AUDIO
    TITLE "0:"
    INDEX 01 00:00:00
  TRACK 02 AUDIO
    TITLE "3:cjc129_1664"
    INDEX 01 00:00:07
  TRACK 03 AUDIO
    TITLE "0:"
    INDEX 01 00:01:40
  TRACK 04 AUDIO
    TITLE "5:cjc129_1665"
    INDEX 01 00:03:10
  TRACK 05 AUDIO
    TITLE "0:"
    INDEX 01 00:07:31
  TRACK 06 AUDIO
    TITLE "4:cjc129_1666"
    INDEX 01 00:08:19
  TRACK 07 AUDIO
    TITLE "0:"
    INDEX 01 00:09:55
  TRACK 08 AUDIO
    TITLE "6:cjc129_1667"
    INDEX 01 00:10:10
  TRACK 09 AUDIO
    TITLE "0:"
    INDEX 01 00:15:38
  TRACK 10 AUDIO
    TITLE "3:cjc129_1668"
    INDEX 01 00:17:12
  TRACK 11 AUDIO
    TITLE "0:"
    INDEX 01 00:18:46
  TRACK 12 AUDIO
    TITLE "5:cjc129_1669"
    INDEX 01 00:20:00
  TRACK 13 AUDIO
    TITLE "0:"
    INDEX 01 00:22:23
  TRACK 14 AUDIO
    TITLE "4:cjc129_1670"
    INDEX 01 00:23:10
  TRACK 15 AUDIO
    TITLE "0:"
    INDEX 01 00:24:43
  TRACK 16 AUDIO
    TITLE "6:cjc129_1671"
    INDEX 01 00:25:01
  TRACK 17 AUDIO
    TITLE "0:"
    INDEX 01 00:28:49
  TRACK 18 AUDIO
    TITLE "3:cjc129_1672"
    INDEX 01 00:30:24
  TRACK 19 AUDIO
    TITLE "0:"
    INDEX 01 00:31:35
  TRACK 20 AUDIO
    TITLE "5:cjc129_1673"
    INDEX 01 00:33:05
  TRACK 21 AUDIO
    TITLE "0:"
    INDEX 01 00:36:44
  TRACK 22 AUDIO
    TITLE "4:cjc129_1674"
    INDEX 01 00:37:34
  TRACK 23 AUDIO
    TITLE "0:"
    INDEX 01 00:38:45
  TRACK 24 AUDIO
    TITLE "6:cjc129_1675"
    INDEX 01 00:39:03
  TRACK 25 AUDIO
    TITLE "0:"
    INDEX 01 00:44:32
  TRACK 26 AUDIO
    TITLE "3:cjc129_1676"
    INDEX 01 00:46:06
  TRACK 27 AUDIO
    TITLE "0:"
    INDEX 01 00:47:13
  TRACK 28 AUDIO
    TITLE "5:cjc129_1677"
    INDEX 01 00:48:49
  TRACK 29 AUDIO
    TITLE "0:"
    INDEX 01 00:52:37
  TRACK 30 AUDIO
    TITLE "4:cjc129_1678"
    INDEX 01 00:53:31
  TRACK 31 AUDIO
    TITLE "0:"
    INDEX 01 00:54:40
  TRACK 32 AUDIO
    TITLE "6:cjc129_1679"
    INDEX 01 00:54:74
  TRACK 33 AUDIO
    TITLE "0:"
    INDEX 01 00:58:58
  TRACK 34 AUDIO
    TITLE "3:cjc129_1680"
    INDEX 01 01:00:33
  TRACK 35 AUDIO
    TITLE "0:"
    INDEX 01 01:01:44
  TRACK 36 AUDIO
    TITLE "5:cjc129_1681"
    INDEX 01 01:03:12
  TRACK 37 AUDIO
    TITLE "0:"
    INDEX 01 01:06:65
  TRACK 38 AUDIO
    TITLE "4:cjc129_1682"
    INDEX 01 01:07:57
  TRACK 39 AUDIO
    TITLE "0:"
    INDEX 01 01:08:64
  TRACK 40 AUDIO
    TITLE "6:cjc129_1683"
    INDEX 01 01:09:22
  TRACK 41 AUDIO
    TITLE "0:"
    INDEX 01 01:14:19
  TRACK 42 AUDIO
    TITLE "3:cjc129_1684"
    INDEX 01 01:15:68
  TRACK 43 AUDIO
    TITLE "0:"
    INDEX 01 01:17:22
  TRACK 44 AUDIO
    TITLE "5:cjc129_1685"
    INDEX 01 01:18:66
  TRACK 45 AUDIO
    TITLE "0:"
    INDEX 01 01:22:70
  TRACK 46 AUDIO
    TITLE "4:cjc129_1686"
    INDEX 01 01:23:63
  TRACK 47 AUDIO
    TITLE "0:"
    INDEX 01 01:25:13
  TRACK 48 AUDIO
    TITLE "6:cjc129_1687"
    INDEX 01 01:25:47
  TRACK 49 AUDIO
    TITLE "0:"
    INDEX 01 01:30:07
  TRACK 50 AUDIO
    TITLE "3:cjc129_1688"
    INDEX 01 01:31:59
  TRACK 51 AUDIO
    TITLE "0:"
    INDEX 01 01:33:11
  TRACK 52 AUDIO
    TITLE "5:cjc129_1689"
    INDEX 01 01:34:40
  TRACK 53 AUDIO
    TITLE "0:"
    INDEX 01 01:38:28
  TRACK 54 AUDIO
    TITLE "4:cjc129_1690"
    INDEX 01 01:39:17
  TRACK 55 AUDIO
    TITLE "0:"
    INDEX 01 01:40:44
  TRACK 56 AUDIO
    TITLE "6:cjc129_1691"
    INDEX 01 01:41:01
  TRACK 57 AUDIO
    TITLE "0:"
    INDEX 01 01:44:46
  TRACK 58 AUDIO
    TITLE "3:cjc129_1692"
    INDEX 01 01:46:23
  TRACK 59 AUDIO
    TITLE "0:"
    INDEX 01 01:47:31
  TRACK 60 AUDIO
    TITLE "5:cjc129_1693"
    INDEX 01 01:49:04
  TRACK 61 AUDIO
    TITLE "0:"
    INDEX 01 01:53:70
  TRACK 62 AUDIO
    TITLE "4:cjc129_1694"
    INDEX 01 01:54:60
  TRACK 63 AUDIO
    TITLE "0:"
    INDEX 01 01:55:67
  TRACK 64 AUDIO
    TITLE "6:cjc129_1695"
    INDEX 01 01:56:28
  TRACK 65 AUDIO
    TITLE "0:"
    INDEX 01 01:59:67
  TRACK 66 AUDIO
    TITLE "3:cjc129_1696"
    INDEX 01 02:01:45
  TRACK 67 AUDIO
    TITLE "0:"
    INDEX 01 02:02:52
  TRACK 68 AUDIO
    TITLE "5:cjc129_1697"
    INDEX 01 02:04:10
  TRACK 69 AUDIO
    TITLE "0:"
    INDEX 01 02:06:08
  TRACK 70 AUDIO
    TITLE "4:cjc129_1698"
    INDEX 01 02:07:00
  TRACK 71 AUDIO
    TITLE "0:"
    INDEX 01 02:08:11
  TRACK 72 AUDIO
    TITLE "6:cjc129_1699"
    INDEX 01 02:08:43
  TRACK 73 AUDIO
    TITLE "0:"
    INDEX 01 02:12:07
